<?xml version="1.0" encoding="UTF-8"?><svg xmlns="http://www.w3.org/2000/svg" xmlns:xlink="http://www.w3.org/1999/xlink" contentScriptType="text/ecmascript" width="300" zoomAndPan="magnify" contentStyleType="text/css" viewBox="0 0 300 299.999988" height="299.999988" preserveAspectRatio="xMidYMid meet" version="1.0"><defs><filter x="0%" y="0%" width="100%" xmlns:xlink="http://www.w3.org/1999/xlink" xlink:type="simple" xlink:actuate="onLoad" height="100%" id="filter-remove-color" xlink:show="other"><feColorMatrix values="0 0 0 0 1 0 0 0 0 1 0 0 0 0 1 0 0 0 1 0" color-interpolation-filters="sRGB"/></filter><mask id="mask-0"><g filter="url(#filter-remove-color)"><rect x="-30" width="360" fill="rgb(0%, 0%, 0%)" y="-29.999999" height="359.999986" fill-opacity="0.1882"/></g></mask><clipPath id="clip-0"><path d="M 0.199219 43 L 197 43 L 197 270 L 0.199219 270 Z M 0.199219 43 " clip-rule="nonzero"/></clipPath><clipPath id="clip-1"><rect x="0" width="281" y="0" height="271"/></clipPath><clipPath id="clip-2"><path d="M 29.472656 73 L 270.222656 73 L 270.222656 227.363281 L 29.472656 227.363281 Z M 29.472656 73 " clip-rule="nonzero"/></clipPath></defs><g mask="url(#mask-0)"><g transform="matrix(1, 0, 0, 1, 19, 0)"><g id="source-5" clip-path="url(#clip-1)"><g clip-path="url(#clip-0)"><path fill="rgb(24.708557%, 31.759644%, 70.979309%)" d="M 0.257812 157.871094 L 195.667969 43.667969 L 196.871094 270 Z M 0.257812 157.871094 " fill-opacity="1" fill-rule="nonzero"/></g></g></g></g><g clip-path="url(#clip-2)"><path fill="rgb(24.708557%, 31.759644%, 70.979309%)" d="M 241.390625 73.011719 C 231.871094 73.011719 223.011719 77.734375 217.664062 85.660156 C 214.601562 90.160156 212.386719 94.976562 210.25 99.644531 C 208.859375 102.695312 207.527344 105.558594 206.023438 108.230469 C 205.875 108.511719 189.769531 135.65625 154.890625 135.65625 C 150.96875 135.65625 142.054688 132.886719 137.339844 131.136719 C 136.421875 130.800781 135.40625 130.742188 134.449219 130.988281 C 128.480469 132.570312 114.046875 136.464844 106.839844 140.472656 C 108.808594 137.746094 116.65625 131.777344 119.226562 129.933594 C 121.125 128.578125 121.78125 126.074219 120.804688 123.964844 C 119.808594 121.859375 117.464844 120.765625 115.210938 121.351562 L 114.234375 121.632812 C 106.949219 123.535156 89.945312 128.03125 77.253906 141.359375 C 95.539062 155.851562 117.332031 169.386719 145.28125 169.386719 C 192.132812 169.386719 218.921875 153.988281 232.097656 119.46875 C 233.054688 116.984375 235.832031 115.757812 238.3125 116.699219 C 240.789062 117.640625 242.027344 120.425781 241.070312 122.929688 C 226.464844 161.199219 196.019531 179.023438 145.28125 179.023438 C 116.957031 179.023438 94.1875 166.167969 76.054688 152.539062 C 75.773438 152.183594 75.453125 151.863281 75.078125 151.597656 C 50.84375 134.433594 38.90625 113.953125 38.90625 113.953125 C 38.023438 112.371094 36.316406 111.429688 34.511719 111.503906 C 32.824219 111.582031 31.285156 112.539062 30.496094 114.046875 C 29.691406 115.535156 29.726562 117.359375 30.609375 118.808594 C 30.609375 118.808594 39.824219 134.46875 58.070312 150.355469 C 55.179688 156.4375 49.753906 172.023438 59.308594 190.84375 C 60.042969 192.445312 61.601562 193.539062 63.363281 193.648438 C 65.109375 193.761719 66.800781 192.898438 67.738281 191.410156 C 68.675781 189.90625 68.734375 188.023438 67.871094 186.480469 C 60.773438 172.492188 63.402344 161.78125 65.65625 156.511719 C 66.648438 157.265625 67.570312 158.019531 68.601562 158.769531 C 70.761719 199.109375 106.371094 224.070312 140.027344 227.195312 C 140.175781 227.210938 140.324219 227.210938 140.476562 227.210938 C 142.335938 227.210938 144.023438 226.140625 144.832031 224.445312 C 145.582031 222.828125 145.375 220.945312 144.34375 219.53125 C 143.910156 218.722656 137.023438 206.507812 135.671875 203.117188 C 142.484375 211.945312 161.3125 226.082031 161.96875 226.496094 C 162.890625 227.0625 163.957031 227.289062 165.027344 227.195312 C 213.550781 221.808594 270.222656 185.78125 270.222656 101.925781 C 270.222656 85.980469 257.289062 73.011719 241.390625 73.011719 Z M 241.390625 73.011719 " fill-opacity="1" fill-rule="nonzero"/></g></svg>